<svg width="420" height="194" viewBox="0 0 420 194" xmlns="http://www.w3.org/2000/svg" preserveAspectRatio="xMidYMid meet">
 <metadata>Created by potrace 1.15, written by Peter Selinger 2001-2017</metadata>

 <g>
  <rect fill="none" height="196" width="422" y="-1" x="-1"/>
 </g>
 <g>
  <g class="icon-cls" fill="#FFFFFF" transform="translate(0,281) scale(0.10000000149011612,-0.10000000149011612) ">
   <path d="m1465,2753c-72,-35 -164,-137 -208,-228c-97,-201 -154,-474 -155,-733l0,-122l-59,-88c-101,-150 -240,-275 -361,-323c-49,-19 -61,-21 -107,-10c-94,21 -171,96 -214,209c-11,31 -35,108 -52,171c-30,109 -32,124 -31,285c0,153 3,180 28,270c30,111 72,197 119,245c100,102 255,104 349,4c24,-26 61,-66 83,-89c51,-54 87,-65 123,-38c42,31 48,70 23,151c-69,228 -394,347 -636,233c-232,-109 -355,-385 -355,-797c0,-204 47,-411 128,-569c52,-101 148,-195 248,-243c75,-35 84,-37 174,-36c186,2 319,82 500,303l74,91l36,-108c48,-142 78,-198 144,-269c107,-116 237,-149 341,-88c27,15 68,46 93,68c52,49 149,176 188,246c15,28 30,51 33,51c3,0 19,-27 35,-60c37,-79 125,-160 203,-190c88,-34 239,-39 330,-12c72,22 157,73 232,140l45,39l30,-50c45,-75 101,-110 181,-115c96,-6 155,25 275,147l95,96l-3,-132c-5,-153 9,-211 61,-261c89,-86 193,-66 291,57c177,221 446,655 446,718c0,41 -27,63 -78,63c-49,0 -45,4 -144,-170c-38,-69 -104,-175 -145,-237c-79,-120 -225,-293 -230,-276c-6,16 40,189 107,404c108,348 117,439 43,478c-40,21 -87,14 -117,-18l-28,-29l-64,44c-80,54 -156,77 -253,76c-64,0 -84,-5 -146,-36c-128,-63 -263,-227 -310,-376c-48,-152 -155,-289 -270,-345c-44,-22 -72,-29 -119,-29c-102,1 -160,41 -173,120c-6,35 -5,35 23,27c42,-12 118,-7 172,11c92,31 252,181 298,280c31,66 33,180 5,242c-28,62 -86,120 -149,151c-50,25 -68,28 -153,28c-90,0 -99,-2 -175,-39c-138,-68 -252,-202 -304,-355c-28,-86 -212,-391 -278,-463c-69,-74 -114,-103 -140,-89c-34,18 -82,106 -97,177c-20,97 -20,99 29,178c146,237 244,475 287,697c29,151 25,329 -9,404c-61,133 -185,181 -309,119zm158,-206c7,-27 9,-88 7,-158c-6,-139 -38,-247 -130,-440l-60,-125l7,130c16,342 47,513 108,602c31,46 54,43 68,-9zm937,-674c12,-14 22,-38 22,-53c0,-50 -105,-168 -187,-209c-45,-23 -141,-47 -150,-38c-10,10 35,153 61,195c52,82 154,147 211,134c11,-3 30,-16 43,-29zm863,-125c16,-17 29,-35 29,-40c0,-15 -219,-237 -288,-292c-51,-40 -66,-47 -73,-36c-12,19 -11,38 2,101c25,114 113,242 194,279c61,28 102,25 136,-12z"/>
  </g>
 </g>
</svg>
