<svg width="117" height="131" viewBox="0 0 117 131" fill="none" xmlns="http://www.w3.org/2000/svg">
  <path
    class="icon-cls2"
    fill-rule="evenodd"
    clip-rule="evenodd"
    d="M40.3 89.8h-.5c-6.4-6.4-9.9-15.2-9.7-24.3 0-9.1 3.7-17.9 10.1-24.3 5.7-4.9 6.3-13.5 1.4-19.2-4.9-5.7-13.5-6.3-19.2-1.4-.5.4-.9.9-1.4 1.4-24 24.2-24 63.3.1 87.4 5.4 5.3 14.1 5.2 19.4-.2 5.3-5.4 5.2-14.1-.2-19.4z"
    stroke="#fff"
    stroke-width="6"
  ></path>
  <path
    class="icon-cls"
    fill-rule="evenodd"
    clip-rule="evenodd"
    d="M39.5 41.4l1-.5c13.5-13.5 35.4-13.5 48.9 0 4.9 5.7 13.5 6.3 19.2 1.4 5.7-4.9 6.3-13.5 1.4-19.2-.4-.5-.9-.9-1.4-1.4-24.1-24.1-63.2-24.1-87.3 0-4.7 5.9-3.7 14.4 2.2 19.1 4.9 3.9 11.8 3.9 16.8.1l-.8.5zM89.4 89.8c-13.5 13.3-35.1 13.3-48.6 0-4.9-5.7-13.5-6.3-19.2-1.4-5.7 4.9-6.3 13.5-1.4 19.2.4.5.9.9 1.4 1.4 24.1 24.1 63.2 24.1 87.3 0 5.3-5.3 5.3-13.9 0-19.2-5.3-5.3-12.1-7.1-17.2-1.8l-2.3 1.8z"
    stroke="#fff"
    stroke-width="6"
  ></path>
  <path
    class="icon-cls2"
    fill-rule="evenodd"
    clip-rule="evenodd"
    d="M40.3 41c-5.2 5.2-13.6 5.3-18.9.1l-.1-.1c-5.4-5.2-5.5-13.9-.2-19.2 5.2-5.4 13.9-5.5 19.2-.2 5.3 5.3 5.5 13.9.2 19.2l-.2.2zM39.7 108.2c-4.9 4.9-12.7 4.9-17.6 0-4.9-4.9-4.9-12.7 0-17.6 5-4.9 13-5 18.2-.3 4.7 5.2 4.5 13.1-.6 17.9z"
    stroke="#fff"
    stroke-width="6"
  ></path>
</svg>
