<?xml version="1.0" encoding="UTF-8"?>
<svg xmlns="http://www.w3.org/2000/svg" xmlns:xlink="http://www.w3.org/1999/xlink" width="96" height="91" viewBox="0 0 96 91" version="1.1">
    <clipPath id="clip">
      <path class="icon-cls" d="M0,0h7.75a45.5,45.5 0 1 1 0,91h-7.75v-20h7.75a25.5,25.5 0 1 0 0,-51h-7.75zm36.2510,0h32a27.75,27.75 0 0 1 21.331,45.5a27.75,27.75 0 0 1 -21.331,45.5h-32a53.6895,53.6895 0 0 0 18.7464,-20h13.2526a7.75,7.75 0 1 0 0,-15.5h-7.75a53.6895,53.6895 0 0 0 0,-20h7.75a7.75,7.75 0 1 0 0,-15.5h-13.2526a53.6895,53.6895 0 0 0 -18.7464,-20z"></path>
    </clipPath>
    <g clip-path="url(#clip)">
      <path class="icon-cls" d="M-100,-102m-27,0v300h300z" fill="#FFFFFF"></path>
      <path class="icon-cls" d="M-100,-102m27,0h300v300z" fill="#FFFFFF"></path>
      <path class="icon-cls" d="M-100,-102l300,300" fill="none" stroke="#FFFFFF" stroke-width="40"></path>
    </g>
  </svg>
