<svg width="745" height="284" viewBox="0 0 745 284" xmlns="http://www.w3.org/2000/svg">
 <metadata>image/svg+xml</metadata>

 <g>
  <rect fill="none" height="286" width="747" y="-1" x="-1"/>
 </g>
 <g>
  <g stroke="null">
   <path class="icon-cls" stroke="null" fill="#FFFFFF" stroke-width="0.2" stroke-linejoin="round" d="m546.62028,230.700267l21.37736,-54.05905l61.7248,0l-29.29293,-82.00466l36.63606,-92.64765l104.93443,278.61169l-77.38535,0l-17.93136,-49.90033l-100.06301,0z"/>
   <path class="icon-cls" stroke="null" fill="#FFFFFF" stroke-width="0.2" stroke-linejoin="round" d="m480.60031,280.60136l112.33442,-278.61206l-74.47387,0l-76.84324,180.04536l-54.64323,-180.04499l-57.24423,0l-58.6723,180.04499l-41.37707,-82.04296l-37.44468,115.3604l38.0175,65.24889l73.29147,0l53.01955,-161.46179l50.55125,161.46179l73.48443,0l0,0.00037z"/>
   <path class="icon-cls" stroke="null" fill="#FFFFFF" stroke-width="0.2" stroke-linejoin="round" d="m72.69275,184.957877l45.87204,0c13.89547,0 26.26886,-1.55089 37.12016,-4.65268l11.86313,-36.54811l33.15557,-102.14654c-2.52631,-4.00423 -5.41049,-7.79021 -8.65254,-11.35744c-17.02341,-18.84306 -41.93018,-28.26424 -74.72105,-28.26424l-115.33006,0l0,278.61173l70.69275,0l0,-95.64272zm60.71867,-118.8716c6.64938,6.69222 9.97369,15.64766 9.97369,26.86708c0,11.30546 -2.92398,20.27191 -8.77157,26.8993c-6.41055,7.36399 -18.21454,11.04579 -35.4112,11.04579l-26.50959,0l0,-74.85108l26.70444,0c16.02714,0 27.36522,3.34631 34.01423,10.0389l0,0.00001z"/>
  </g>
 </g>
</svg>
