<svg width="50" height="50" xmlns="http://www.w3.org/2000/svg" clip-rule="evenodd" viewBox="0 0 50 50">
 <g>
  <rect fill="none" height="52" width="52" y="-1" x="-1"/>
 </g>
 <g>
  <g>
   <g>
    <path class="icon-cls" fill="#FFFFFF" d="m42.995,25.138001c0,-0.548 -0.405,-0.864 -0.902,-0.707l-34.191,10.842c-0.498,0.158 -0.902,0.731 -0.902,1.278l0,11.081c0,0.548 0.404,0.865 0.902,0.707l34.191,-10.841c0.497,-0.158 0.902,-0.731 0.902,-1.279l0,-11.081z"/>
    <path class="icon-cls" fill="#FFFFFF" d="m7,24.785001c0,0.548 0.404,1.121 0.902,1.279l34.196,10.843c0.498,0.158 0.902,-0.159 0.902,-0.706l0,-11.082c0,-0.547 -0.404,-1.12 -0.902,-1.278l-34.196,-10.843c-0.498,-0.158 -0.902,0.158 -0.902,0.706l0,11.081z"/>
    <path class="icon-cls" fill="#FFFFFF" d="m42.995,2.368001c0,-0.548 -0.405,-0.865 -0.902,-0.707l-34.191,10.841c-0.498,0.158 -0.902,0.731 -0.902,1.279l0,11.081c0,0.548 0.404,0.864 0.902,0.707l34.191,-10.842c0.497,-0.158 0.902,-0.731 0.902,-1.278l0,-11.081z"/>
   </g>
  </g>
 </g>
</svg>
