<svg width="128" height="128" viewBox="0 0 128 128" xmlns="http://www.w3.org/2000/svg">
  <g>
    <path class="icon-cls" stroke="null" d="m78.130304,86.231838l7.91297,-9.797011c5.652122,4.521697 11.304244,7.536162 18.463598,7.536162c5.652122,0 9.043395,-2.260849 9.043395,-6.02893c0,-3.391273 -2.260849,-5.275314 -12.434668,-7.91297c-12.434668,-3.391273 -20.347638,-6.782546 -20.347638,-19.217214l0,-0.376808c0,-11.304244 9.043395,-18.840406 21.478063,-18.840406a36.889515,36.889515 0 0 1 22.985295,7.91297l-7.159354,10.550627a28.712779,28.712779 0 0 0 -15.825941,-6.02893c-4.898506,0 -7.91297,2.260849 -7.91297,5.652122c0,4.144889 2.637657,5.652122 13.188284,8.289779c12.434668,3.391273 19.594022,7.91297 19.594022,18.840406c0,12.434668 -9.420203,19.594022 -22.608487,19.594022a43.445976,43.445976 0 0 1 -26.376568,-10.173819m-12.05786,-53.506753l-9.420203,36.173579l-10.550627,-36.173579l-10.550627,0l-10.550627,36.173579l-9.420203,-36.173579l-14.695517,0l18.08679,62.550148l11.681052,0l10.173819,-36.173579l10.173819,36.173579l11.681052,0l18.08679,-62.550148l-14.695517,0z" fill="#fff"/>
  </g>
</svg>
